# xmcd
#
# Track frame offsets: 
#        182
#        14555
#        28867
#        46907
#
# Disc length: 837 seconds
#
# Revision: 0
# Processed by: cddbd v1.5.2PL0 Copyright (c) Steve Scherf et al.
# Submitted via: ExactAudioCopyFreeDBPlugin 1.0
#
DISCID=2c034304
DTITLE=Emmylou Harris - Selections from Cowgirl's Prayer
DYEAR=1993
DGENRE=Country
TTITLE0=High Powered Love
TTITLE1=You Don't Know Me
TTITLE2=Thanks To You
TTITLE3=Crescent City
EXTD=
EXTT0=
EXTT1=
EXTT2=
EXTT3=
PLAYORDER=
